<svg xmlns="http://www.w3.org/2000/svg" width="20.361" height="20.361" viewBox="0 0 20.361 20.361"><defs><style>.a{stroke:#121217;stroke-width:0.5px;}</style></defs><g transform="matrix(0.485, -0.875, 0.875, 0.485, 0.34, 13.002)"><g transform="translate(0 0)"><path class="a" d="M14.478.986A.981.981,0,0,0,13.491,0a.988.988,0,0,0-.7.292c-.079.079-.223.25-.3.345a.235.235,0,0,0,.361.3c.123-.149.225-.266.273-.313a.522.522,0,0,1,.369-.154h0a.512.512,0,0,1,.513.515.522.522,0,0,1-.154.369,8.381,8.381,0,0,1-.829.634,1.486,1.486,0,0,0-1.283-.738H8.308a1.725,1.725,0,0,0-1.227.508L.215,8.623a.735.735,0,0,0,0,1.039l4.6,4.6a.736.736,0,0,0,1.039,0L12.72,7.4a1.724,1.724,0,0,0,.508-1.227V2.735a1.485,1.485,0,0,0-.03-.3,8.977,8.977,0,0,0,.988-.754A.988.988,0,0,0,14.478.986ZM12.759,6.17a1.258,1.258,0,0,1-.371.9L5.523,13.931a.266.266,0,0,1-.376,0l-4.6-4.6a.266.266,0,0,1,0-.376L7.412,2.09a1.258,1.258,0,0,1,.9-.371h3.435a1.017,1.017,0,0,1,.894.533c-.277.183-.587.379-.916.57l-.032-.033a.986.986,0,1,0,.256.445c.286-.167.561-.337.815-.5V6.17ZM10.782,3.591a.234.234,0,0,0,.315.1q.206-.1.41-.215a.516.516,0,1,1-.218-.415q-.2.108-.4.211A.234.234,0,0,0,10.782,3.591Z" transform="translate(0 0)"/></g><g transform="translate(6.754 4.778)"><g transform="translate(0 0)"><path class="a" d="M.235,0A.235.235,0,0,0,0,.235V5.188a.235.235,0,0,0,.469,0V.235A.235.235,0,0,0,.235,0Z" transform="translate(0 0)"/></g></g><g transform="translate(4.235 6.504)"><g transform="translate(0 0)"><path class="a" d="M1.681.288a.985.985,0,1,0,.289.7A.986.986,0,0,0,1.681.288ZM1.35,1.35A.516.516,0,1,1,1.5.985.517.517,0,0,1,1.35,1.35Z"/></g></g><g transform="translate(7.773 6.504)"><g transform="translate(0 0)"><path class="a" d="M1.681.288a.985.985,0,1,0,0,1.393A.986.986,0,0,0,1.681.288ZM1.349,1.35a.516.516,0,1,1,0-.73A.517.517,0,0,1,1.349,1.35Z" transform="translate(0 0)"/></g></g></g></svg>